<?xml version="1.0" encoding="utf-8"?>
<!-- Generator: Adobe Illustrator 24.0.0, SVG Export Plug-In . SVG Version: 6.00 Build 0)  -->
<svg version="1.1" id="automate-infinitiesl_x5F_logo_x5F_mark_x5F_rgb_x5F_color"
	 xmlns="http://www.w3.org/2000/svg" xmlns:xlink="http://www.w3.org/1999/xlink" x="0px" y="0px" viewBox="0 0 1000 1000"
	 style="enable-background:new 0 0 1000 1000;" xml:space="preserve">
<style type="text/css">
	.st0{fill:#071D49;}
	.st1{fill:#FFFFFF;}
</style>
<g id="automate-infinitiesl_x5F_logo_x5F_mark_2_">
	<path id="bg_2_" class="st0" d="M0,0l0,625l1000,375V0L0,0z"/>
	<path id="w_2_" class="st1" d="M773.72,390.38c0,50.86-13.89,90.17-41.67,117.95C704.26,536.12,664.74,550,613.46,550
		c-24.79,0-46.7-3.85-65.7-11.54c-19.02-7.69-34.94-20.08-47.76-37.18c-12.82,17.1-28.64,29.48-47.44,37.18
		c-18.81,7.69-41.03,11.54-66.67,11.54c-51.71,0-91.24-13.88-118.59-41.67c-27.36-27.77-41.03-67.08-41.03-117.95V200h100v182.69
		c0,28.63,4.91,49.68,14.74,63.14c9.82,13.46,25.21,20.19,46.16,20.19c21.36,0,37.18-6.83,47.44-20.51
		C444.87,431.84,450,410.9,450,382.69V200h100v182.69c0,28.2,5.13,49.15,15.39,62.82c10.26,13.68,26.06,20.51,47.44,20.51
		c20.93,0,36.32-6.73,46.16-20.19c9.82-13.46,14.74-34.51,14.74-63.14V200h100V390.38z"/>
</g>
</svg>
