<svg width="292" height="385" viewBox="0 0 292 385" fill="none" xmlns="http://www.w3.org/2000/svg">
<path fill-rule="evenodd" clip-rule="evenodd" d="M0 93V275.5L292 385V93H0Z" fill="#A821D3"/>
<mask id="mask0" mask-type="alpha" maskUnits="userSpaceOnUse" x="62" y="52" width="179" height="169">
<path d="M62 199.5H125V178.5H62V199.5ZM230 52.5H62V73.5H230V52.5ZM198.5 115.5H62V136.5H201.125C212.675 136.5 222.125 145.95 222.125 157.5C222.125 169.05 212.675 178.5 201.125 178.5H177.5V157.5L146 189L177.5 220.5V199.5H198.5C221.705 199.5 240.5 180.705 240.5 157.5C240.5 134.295 221.705 115.5 198.5 115.5Z" fill="white"/>
</mask>
<g mask="url(#mask0)">
<path d="M62 199.5H125V178.5H62V199.5ZM230 52.5H62V73.5H230V52.5ZM198.5 115.5H62V136.5H201.125C212.675 136.5 222.125 145.95 222.125 157.5C222.125 169.05 212.675 178.5 201.125 178.5H177.5V157.5L146 189L177.5 220.5V199.5H198.5C221.705 199.5 240.5 180.705 240.5 157.5C240.5 134.295 221.705 115.5 198.5 115.5Z" fill="#091C48"/>
</g>
</svg>
