<svg width="276" height="71" viewBox="0 0 276 71" fill="none" xmlns="http://www.w3.org/2000/svg">
<path fill-rule="evenodd" clip-rule="evenodd" d="M250.684 2.24869L248.437 4.48089L246.568 2.65536L244.698 0.829445L243.128 1.54102C242.265 1.93248 241.125 2.72048 240.595 3.29208L239.631 4.33117L241.866 6.55128L244.101 8.77139L246.178 6.73297C247.32 5.612 248.432 4.69495 248.648 4.69495C249.144 4.69495 253.529 9.07396 253.529 9.56952C253.529 9.77188 252.43 11.0391 251.087 12.385L248.646 14.8324L251.173 17.3664L253.701 19.9004L251.37 22.2402C250.089 23.5269 248.863 24.58 248.648 24.58C248.432 24.58 247.32 23.663 246.178 22.542L244.101 20.5036L241.857 22.7323L239.614 24.961L241.74 27.0992L243.865 29.2374L246.177 27.0466L248.489 24.8557L251.303 27.6213L254.117 30.3865L256.423 28.2256L258.729 26.0648L261.231 28.5278C262.607 29.8827 263.733 31.1655 263.733 31.3788C263.733 31.5921 262.938 32.568 261.966 33.5478L260.2 35.3293L262.364 37.4515L264.526 39.5738L266.681 37.4332L268.835 35.293L267.082 33.5431C266.117 32.5808 265.322 31.6127 265.315 31.392C265.308 31.1713 266.411 29.8991 267.767 28.5645L270.231 26.1381L272.561 28.4775L274.892 30.8173L272.772 32.9497C270.689 35.0454 270.665 35.0961 271.374 35.8748C271.771 36.3107 272.221 36.667 272.374 36.667C272.527 36.667 273.113 35.6467 273.676 34.3994C276.927 27.2033 276.763 19.5175 273.213 12.688C271.277 8.96478 266.786 4.49766 263.229 2.75791L260.572 1.45875L259.594 2.37151L258.617 3.28428L256.941 1.65019C254.545 -0.68611 253.542 -0.590193 250.684 2.24869ZM62.2126 3.53771C53.7971 5.29852 48.5888 9.81243 46.4813 17.1719C45.3694 21.0541 45.4515 28.1578 46.6528 31.9882C47.8396 35.773 48.9926 37.6839 51.5271 40.065C53.8038 42.2044 57.33 44.035 61.2236 45.0991C64.9088 46.1058 77.9463 46.1058 81.6315 45.0991C89.5859 42.9254 94.5167 38.3276 96.3365 31.387C97.1313 28.3562 97.1399 20.4474 96.3519 17.4421C94.2934 9.5898 88.6997 4.95034 79.3234 3.3182C74.6928 2.51188 66.6199 2.61559 62.2126 3.53771ZM0.784918 24.3851V44.855H7.45672H14.1285V39.0989V33.3427L16.758 31.1058C18.2042 29.8757 19.488 28.869 19.6108 28.869C19.7336 28.869 22.5432 32.4658 25.8548 36.862L31.8755 44.855H40.7106C47.7211 44.855 49.4671 44.7544 49.1641 44.3676C48.9542 44.0998 46.4157 40.8226 43.5237 37.0854C40.6313 33.3486 36.5454 28.0849 34.4442 25.3883C32.3429 22.6921 30.6652 20.2786 30.7158 20.0252C30.7664 19.7713 34.6836 16.0868 39.4202 11.8372L48.0323 4.11009L39.2824 4.00521L30.5325 3.89994L22.4286 11.7818L14.3248 19.6637L14.2184 11.7892L14.1124 3.91514H7.44848H0.784918V24.3851ZM100.862 24.3944V44.8737L107.436 44.7669L114.009 44.6601L114.116 36.7704L114.222 28.8811L125.497 28.7773L136.772 28.674L136.883 24.4826L136.995 20.2911H125.6H114.206V16.782V13.2728H126.372H138.538V8.59398V3.91514H119.7H100.862V24.3944ZM150.688 5.18233C150.411 5.87948 148.161 11.2746 145.687 17.1719C137.904 35.7285 134.221 44.5762 134.221 44.7178C134.221 44.7934 137.385 44.855 141.253 44.855H148.285L148.907 43.1979C149.249 42.2867 149.767 40.839 150.058 39.9812L150.587 38.4216L159.226 38.3167L167.865 38.2118L169.043 41.436L170.221 44.6601L184.125 44.7622L198.029 44.8648L202.133 38.8271C204.39 35.5063 206.326 32.7918 206.434 32.7949C206.541 32.798 208.465 35.5129 210.708 38.8279L214.787 44.855H223.033C230.851 44.855 231.249 44.8195 230.688 44.1727C230.363 43.7972 226.51 39.0369 222.127 33.5942C215.32 25.1399 214.222 23.5963 214.595 23.0021C214.836 22.6196 218.096 18.388 221.84 13.5984C225.584 8.80882 228.781 4.67038 228.945 4.40252C229.179 4.01886 227.572 3.91514 221.404 3.91514H213.566L210.14 9.17884C208.256 12.0739 206.585 14.4425 206.426 14.4425C206.268 14.4425 204.583 12.0739 202.684 9.17884L199.229 3.91514H191.45C187.172 3.91514 183.671 4.00287 183.671 4.11009C183.671 4.28594 186.552 8.03174 190.911 13.5224C195.263 19.0056 198.584 23.3538 198.584 23.5674C198.584 23.7371 185.411 40.258 183.813 42.0933C183.734 42.1826 183.57 42.1553 183.446 42.0325C183.235 41.8227 176.457 25.6862 170.261 10.641L167.49 3.91514H159.341H151.192L150.688 5.18233ZM260.791 7.64223C261.762 8.61972 262.555 9.53482 262.555 9.67558C262.555 9.81672 261.722 10.772 260.705 11.7986L258.854 13.6651L256.78 11.6302L254.706 9.59565L256.556 7.72996C257.573 6.70412 258.545 5.86466 258.716 5.86466C258.887 5.86466 259.821 6.66435 260.791 7.64223ZM271.597 10.7661C272.052 11.6114 272.006 11.8239 271.18 12.6977L270.252 13.6791L268.366 11.8337C267.329 10.8184 266.48 9.77461 266.48 9.51416C266.48 9.2537 266.951 8.67157 267.528 8.22085L268.577 7.40127L269.831 8.6088C270.521 9.27281 271.315 10.2437 271.597 10.7661ZM241.75 12.6926L239.614 14.8414L241.792 17.005L243.969 19.1686L246.296 16.9917L248.623 14.8153L246.303 12.6794C245.028 11.5046 243.962 10.5435 243.935 10.5435C243.908 10.5435 242.925 11.5105 241.75 12.6926ZM76.0594 12.7032C78.7132 13.5458 80.5844 15.2711 81.8411 18.0347C82.7908 20.1227 82.96 21.0066 82.9808 23.9952C83.0098 28.1851 82.4286 30.3943 80.6598 32.8148C78.5668 35.6786 76.5142 36.4721 71.1999 36.4721C67.0454 36.4721 66.7651 36.4194 64.9206 35.2911C61.1349 32.9754 59.3634 28.7461 59.7605 22.9728C60.0902 18.1813 61.9964 14.8831 65.3755 13.258C68.4417 11.783 72.4978 11.5725 76.0594 12.7032ZM232.146 13.2666L230.607 14.8324L232.146 16.3983L233.685 17.9645L235.261 16.3983L236.838 14.8324L235.261 13.2666L233.685 11.7003L232.146 13.2666ZM162.064 22.1112C163.371 25.793 164.44 28.9949 164.44 29.2269C164.44 29.5088 162.668 29.6488 159.1 29.6488C154.174 29.6488 153.781 29.5957 154.026 28.9664C154.172 28.591 155.368 25.2514 156.683 21.5446C157.999 17.8378 159.213 14.9428 159.381 15.1112C159.549 15.2797 160.756 18.4297 162.064 22.1112ZM260.794 17.9567L262.732 19.9113L260.769 21.8608L258.807 23.8104L256.884 21.8702L254.96 19.93L256.697 18.0059C257.653 16.9473 258.529 16.0638 258.645 16.0419C258.761 16.0201 259.728 16.8818 260.794 17.9567ZM272.17 21.8507L270.228 23.8104L268.265 21.8608L266.303 19.9113L268.246 17.9517L270.188 15.992L272.151 17.9415L274.113 19.891L272.17 21.8507ZM232.126 23.4244L230.607 24.9699L232.14 26.5303L233.674 28.0911L235.163 26.6461C235.983 25.8519 236.638 25.0179 236.619 24.7933C236.601 24.5687 235.924 23.8213 235.116 23.1319L233.645 21.8788L232.126 23.4244ZM252.043 33.2682L249.995 35.3281L252.159 37.4507L254.323 39.5738L256.575 37.3338L258.827 35.0938L256.736 33.1513C255.585 32.0826 254.52 31.2084 254.368 31.2084C254.215 31.2084 253.169 32.1352 252.043 33.2682ZM242.224 33.2741C241.534 33.981 240.97 34.7362 240.97 34.9519C240.97 35.4556 243.433 37.8368 243.953 37.8368C244.46 37.8368 246.857 35.3901 246.857 34.8731C246.857 34.3693 244.394 31.9882 243.874 31.9882C243.656 31.9882 242.914 32.5668 242.224 33.2741ZM232.728 34.1327L231.786 35.1289L232.768 36.1036L233.749 37.0784L234.691 36.0822L235.632 35.086L234.651 34.1112L233.67 33.1365L232.728 34.1327ZM252.625 43.9964L251.169 45.4773L252.466 46.7258C253.179 47.4124 254.028 47.9742 254.353 47.9742C254.678 47.9742 255.509 47.3956 256.199 46.6887L257.453 45.4028L255.965 43.9594C255.146 43.1652 254.387 42.5156 254.279 42.5156C254.169 42.5156 253.425 43.1819 252.625 43.9964ZM262.795 44.0304C260.913 45.9452 261.434 46.3187 263.878 44.8074C265.429 43.8483 265.675 43.5465 265.285 43.0806C264.616 42.2785 264.458 42.339 262.795 44.0304ZM243.176 44.4156L242.085 45.5471L242.988 46.176C244.142 46.9784 244.625 46.9675 245.389 46.1222C245.954 45.498 245.932 45.3482 245.137 44.3622L244.267 43.2841L243.176 44.4156ZM0 64.935V70.5886H1.76607H3.53213V68.8758C3.53213 66.8062 3.75426 66.6896 7.7028 66.6896C10.2895 66.6896 10.7447 66.5777 11.5952 65.7324C12.282 65.0501 12.5587 64.3478 12.5587 63.285C12.5587 60.11 10.8433 59.2869 4.21894 59.2838L0 59.2814V64.935ZM20.8003 64.935V70.5886H22.3702H23.94V64.935V59.2814H22.3702H20.8003V64.935ZM53.2438 59.5415C53.0997 59.6842 52.982 60.386 52.982 61.1011C52.982 62.1406 52.825 62.4007 52.1971 62.4007C51.6213 62.4007 51.4121 62.6607 51.4121 63.3754C51.4121 64.0901 51.6213 64.3502 52.1971 64.3502C52.9015 64.3502 52.982 64.6103 52.982 66.8846C52.982 70.1945 53.7386 71.0745 56.4368 70.9017C57.9686 70.8035 58.3002 70.6444 58.3987 69.9589C58.4913 69.3133 58.2578 69.0832 57.3194 68.8965C56.1574 68.6656 56.1217 68.5943 56.1217 66.5044C56.1217 64.3708 56.133 64.3502 57.299 64.3502C58.2845 64.3502 58.4764 64.1958 58.4764 63.4012C58.4764 62.6561 58.2449 62.426 57.3971 62.3289C56.46 62.2221 56.3018 62.0131 56.1962 60.7436C56.082 59.3766 55.991 59.2814 54.7896 59.2814C54.0832 59.2814 53.3874 59.3984 53.2438 59.5415ZM66.718 60.0612C66.718 60.7112 66.9798 60.8411 68.2879 60.8411C69.596 60.8411 69.8577 60.7112 69.8577 60.0612C69.8577 59.4113 69.596 59.2814 68.2879 59.2814C66.9798 59.2814 66.718 59.4113 66.718 60.0612ZM155.021 64.935V70.5886H156.766H158.51L158.63 68.7366L158.75 66.8846L162.416 66.6896C165.67 66.5165 166.166 66.3909 166.831 65.5741C167.738 64.4594 167.813 62.125 166.98 60.9428C166.123 59.7275 164.064 59.2861 159.24 59.2838L155.021 59.2814V64.935ZM211.853 60.7436C211.756 61.918 211.558 62.2303 210.849 62.3305C209.509 62.5192 209.598 64.3502 210.947 64.3502C211.9 64.3502 211.928 64.4289 211.928 67.0705C211.928 69.5176 212.023 69.8529 212.877 70.4085C213.476 70.7984 214.453 70.9817 215.526 70.9049C216.91 70.8062 217.248 70.6304 217.345 69.9589C217.437 69.3133 217.204 69.0832 216.265 68.8965C215.103 68.6656 215.068 68.5943 215.068 66.5044C215.068 64.3708 215.079 64.3502 216.245 64.3502C217.23 64.3502 217.422 64.1958 217.422 63.4012C217.422 62.6561 217.191 62.426 216.343 62.3289C215.406 62.2221 215.248 62.0131 215.142 60.7436C215.024 59.3259 214.974 59.2814 213.498 59.2814C212.022 59.2814 211.971 59.3259 211.853 60.7436ZM8.78755 62.4981C9.61603 63.8094 8.629 64.5451 6.04034 64.5451C3.91988 64.5451 3.71777 64.4699 3.59924 63.6394C3.34807 61.8782 3.7472 61.5729 6.13571 61.6988C7.73458 61.7831 8.47751 62.0069 8.78755 62.4981ZM163.459 63.1805V64.5451H161.104C158.939 64.5451 158.739 64.4722 158.621 63.6394C158.369 61.872 158.766 61.5729 161.198 61.6988L163.459 61.8158V63.1805ZM34.5376 62.6939C33.7829 63.0686 33.1075 63.6823 33.0372 64.0578C32.934 64.606 33.1899 64.7401 34.3394 64.7401C35.1263 64.7401 36.0348 64.4769 36.3586 64.1552C37.0905 63.4281 38.8586 63.398 39.8197 64.096C41.0092 64.9604 40.2145 65.4119 36.9948 65.7012C33.3594 66.0283 32.1816 66.6471 32.1816 68.2305C32.1816 70.3629 33.881 71.2129 37.3672 70.8245C38.5085 70.6974 40.3691 70.6023 41.5026 70.6132L43.563 70.6335V67.4663C43.563 65.7242 43.3844 63.9673 43.1658 63.5618C42.3357 62.0205 36.9783 61.4813 34.5376 62.6939ZM83.0232 62.6432C82.2229 63.0888 81.8179 63.1512 81.7151 62.8448C81.6331 62.6003 80.8745 62.4007 80.0291 62.4007H78.4918V66.4947V70.5886H80.0617H81.6315V68.3362C81.6315 65.6326 82.3713 64.3502 83.9301 64.3502C85.5749 64.3502 85.9485 65.0138 85.9485 67.9373V70.5886H87.5184H89.0882V67.3177C89.0882 64.7561 88.9359 63.8597 88.3861 63.1852C87.4481 62.0345 84.6283 61.7495 83.0232 62.6432ZM121.092 62.6654C120.284 63.0994 119.887 63.154 119.784 62.8448C119.702 62.6003 118.943 62.4007 118.098 62.4007H116.56V66.4947V70.5886H118.086H119.611L119.768 67.8363C119.931 64.9721 120.297 64.3677 121.878 64.356C123.237 64.3459 123.625 65.1401 123.625 67.9373V70.5886H125.194H126.764V67.9373C126.764 65.1312 127.149 64.3502 128.53 64.3502C129.912 64.3502 130.296 65.1312 130.296 67.9373V70.5886H131.866H133.436V67.1072C133.436 64.464 133.288 63.4787 132.82 63.014C131.79 61.9905 130.271 61.8365 128.247 62.5512C126.537 63.1544 126.279 63.1602 125.494 62.6136C124.39 61.8458 122.576 61.8673 121.092 62.6654ZM178.373 62.2669C177.5 62.502 175.822 63.9174 175.822 64.418C175.822 64.9643 178.72 64.7491 179.527 64.1428C180.873 63.1313 183.278 63.515 183.278 64.7413C183.278 65.3312 182.785 65.4821 180.074 65.7207C177.468 65.9496 176.699 66.1722 175.954 66.913C174.775 68.0835 174.797 68.8259 176.043 70.0642C176.993 71.0078 177.207 71.0503 179.87 70.821C181.421 70.6873 183.573 70.5879 184.652 70.6003L186.614 70.6226L186.483 67.1941C186.312 62.7255 185.961 62.3297 182.033 62.1714C180.452 62.1079 178.804 62.1507 178.373 62.2669ZM199.86 62.7863C198.819 63.4168 198.584 63.4522 198.584 62.9797C198.584 62.564 198.141 62.4007 197.014 62.4007H195.445V66.4947V70.5886H197.014H198.584V68.5186C198.584 65.8322 199.154 65.1023 201.454 64.8446C203.24 64.6446 203.294 64.6005 203.294 63.3247C203.294 62.1507 203.179 62.0108 202.215 62.0123C201.621 62.0131 200.562 62.3613 199.86 62.7863ZM230.185 62.6213C229.43 63.0124 228.967 63.0807 228.877 62.814C228.801 62.5867 228.047 62.4007 227.201 62.4007H225.664V66.4947V70.5886H227.234H228.804V68.1147C228.804 65.4357 229.455 64.3502 231.063 64.3502C232.558 64.3502 233.121 65.3717 233.121 68.082V70.5886H234.691H236.26V67.6827C236.26 66.0845 236.064 64.3494 235.825 63.8265C235.016 62.0622 232.36 61.4949 230.185 62.6213ZM247.005 62.5711C245.281 63.3166 244.5 64.6048 244.515 66.6791C244.529 68.7202 244.968 69.4244 246.818 70.3746C249.467 71.7342 255.131 70.6853 255.793 68.7128C256.021 68.0336 253.064 68.1217 252.132 68.8216C250.678 69.9145 247.642 69.1171 247.642 67.6421C247.642 67.186 248.458 67.0795 251.959 67.0795C254.665 67.0795 256.276 66.9294 256.276 66.6771C256.276 65.541 254.994 63.4955 253.846 62.8007C252.31 61.8696 248.892 61.755 247.005 62.5711ZM268.58 62.3979C268.117 62.5839 267.621 62.9235 267.478 63.1532C267.097 63.7653 266.48 63.6616 266.48 62.9855C266.48 62.5633 266.044 62.4007 264.91 62.4007H263.34V66.4947V70.5886H264.91H266.48V68.6216C266.48 66.0412 267.772 64.5771 269.838 64.8165C271.168 64.9709 271.189 64.9506 271.189 63.492C271.189 62.2084 271.072 62.0139 270.306 62.0353C269.821 62.049 269.044 62.2123 268.58 62.3979ZM66.718 66.4947V70.5886H68.2879H69.8577V66.4947V62.4007H68.2879H66.718V66.4947ZM97.7223 65.7324C97.7223 68.7502 97.813 69.1546 98.6858 70.0213C99.8224 71.1509 102.52 71.3415 103.889 70.3894C104.424 70.0167 104.825 69.9453 104.98 70.1945C105.115 70.4112 105.921 70.5886 106.772 70.5886H108.319V66.4947V62.4007H106.553H104.787V65.052C104.787 67.9517 104.411 68.6391 102.824 68.6391C101.238 68.6391 100.862 67.9517 100.862 65.052V62.4007H99.2922H97.7223V65.7324ZM252.026 64.2157C253.209 65.2789 252.87 65.5199 250.193 65.5199C247.505 65.5199 247.077 65.1776 248.514 64.1775C249.648 63.3887 251.124 63.4047 252.026 64.2157ZM40.4233 67.4218C40.4233 68.3116 39.7828 68.8805 38.3892 69.2279C36.8095 69.6217 35.6447 69.1246 35.7891 68.1182C35.908 67.2889 36.1926 67.1945 39.9327 66.7481C40.2027 66.7161 40.4233 67.0191 40.4233 67.4218ZM183.514 67.1435C183.932 67.8153 181.848 69.4189 180.557 69.4189C179.948 69.4189 179.23 69.1557 178.961 68.8341C178.247 67.9794 179.083 67.1579 180.855 66.9719C181.649 66.8888 182.508 66.7914 182.765 66.7551C183.022 66.7192 183.359 66.8939 183.514 67.1435Z" fill="white"/>
</svg>
