<svg width="292" height="385" viewBox="0 0 292 385" fill="none" xmlns="http://www.w3.org/2000/svg">
<path fill-rule="evenodd" clip-rule="evenodd" d="M0 93V275.5L292 385V93H0Z" fill="#00A9E6"/>
<mask id="mask0" mask-type="alpha" maskUnits="userSpaceOnUse" x="41" y="21" width="210" height="200">
<path d="M146 105C169.205 105 188 86.205 188 63C188 39.795 169.205 21 146 21C122.795 21 104 39.795 104 63C104 86.205 122.795 105 146 105ZM146 42C157.55 42 167 51.45 167 63C167 74.55 157.55 84 146 84C134.45 84 125 74.55 125 63C125 51.45 134.45 42 146 42ZM83 136.5C59.795 136.5 41 155.295 41 178.5C41 201.705 59.795 220.5 83 220.5C106.205 220.5 125 201.705 125 178.5C125 155.295 106.205 136.5 83 136.5ZM83 199.5C71.45 199.5 62 190.05 62 178.5C62 166.95 71.45 157.5 83 157.5C94.55 157.5 104 166.95 104 178.5C104 190.05 94.55 199.5 83 199.5ZM146 116.55C134.975 116.55 126.05 125.475 126.05 136.5C126.05 147.525 134.975 156.45 146 156.45C157.025 156.45 165.95 147.525 165.95 136.5C165.95 125.475 157.025 116.55 146 116.55ZM209 136.5C185.795 136.5 167 155.295 167 178.5C167 201.705 185.795 220.5 209 220.5C232.205 220.5 251 201.705 251 178.5C251 155.295 232.205 136.5 209 136.5ZM209 199.5C197.45 199.5 188 190.05 188 178.5C188 166.95 197.45 157.5 209 157.5C220.55 157.5 230 166.95 230 178.5C230 190.05 220.55 199.5 209 199.5Z" fill="white"/>
</mask>
<g mask="url(#mask0)">
<path d="M146 105C169.205 105 188 86.205 188 63C188 39.795 169.205 21 146 21C122.795 21 104 39.795 104 63C104 86.205 122.795 105 146 105ZM146 42C157.55 42 167 51.45 167 63C167 74.55 157.55 84 146 84C134.45 84 125 74.55 125 63C125 51.45 134.45 42 146 42ZM83 136.5C59.795 136.5 41 155.295 41 178.5C41 201.705 59.795 220.5 83 220.5C106.205 220.5 125 201.705 125 178.5C125 155.295 106.205 136.5 83 136.5ZM83 199.5C71.45 199.5 62 190.05 62 178.5C62 166.95 71.45 157.5 83 157.5C94.55 157.5 104 166.95 104 178.5C104 190.05 94.55 199.5 83 199.5ZM146 116.55C134.975 116.55 126.05 125.475 126.05 136.5C126.05 147.525 134.975 156.45 146 156.45C157.025 156.45 165.95 147.525 165.95 136.5C165.95 125.475 157.025 116.55 146 116.55ZM209 136.5C185.795 136.5 167 155.295 167 178.5C167 201.705 185.795 220.5 209 220.5C232.205 220.5 251 201.705 251 178.5C251 155.295 232.205 136.5 209 136.5ZM209 199.5C197.45 199.5 188 190.05 188 178.5C188 166.95 197.45 157.5 209 157.5C220.55 157.5 230 166.95 230 178.5C230 190.05 220.55 199.5 209 199.5Z" fill="#091C48"/>
</g>
</svg>
