<?xml version="1.0" encoding="UTF-8"?>
<svg width="292px" height="385px" viewBox="0 0 292 385" version="1.1" xmlns="http://www.w3.org/2000/svg" xmlns:xlink="http://www.w3.org/1999/xlink">
    <!-- Generator: Sketch 63.1 (92452) - https://sketch.com -->
    <title>intelligent-automation</title>
    <desc>Created with Sketch.</desc>
    <defs>
        <path d="M105,47.7272727 L105,76.3636364 L143.181818,38.1818182 L105,0 L105,28.6363636 L105,47.7272727 Z M105,219.545455 L105,190.909091 L66.8181818,229.090909 L105,267.272727 L105,238.636364 L105,219.545455 Z" id="path-1"></path>
    </defs>
    <g id="intelligent-automation" stroke="none" stroke-width="1" fill="none" fill-rule="evenodd">
        <g id="easyClaim" transform="translate(0.000000, 93.000000)" fill="#FF850F">
            <polyline id="bg" points="0 0 0 182.5 292 292 292 0 0 0"></polyline>
        </g>
        <g id="Group" transform="translate(41.000000, 0.000000)">
            <g id="ic/check_circle" transform="translate(47.727273, 76.363636)">
                <g id="Shape">
                    <rect x="0" y="0" width="114.545455" height="114.545455"></rect>
                </g>
            </g>
            <g id="ic/autorenew" transform="translate(66.818182, 0.000000)">
                <g></g>
            </g>
            <path d="M210,134 C210,191.989899 162.989899,239 105,239 C96.8952806,239 89.0050306,238.081747 81.4276117,236.343602 L95.64059,219.405132 C98.7146578,219.738194 101.837371,219.909091 105,219.909091 C152.446281,219.909091 190.909091,181.446281 190.909091,134 C190.909091,125.647705 189.717168,117.573799 187.494137,109.939098 L201.697993,93.0098679 C207.043217,105.603756 210,119.456581 210,134 Z M105,29 C113.105075,29 120.995662,29.9183338 128.573386,31.656627 L114.35941,48.5948676 C111.285342,48.2618055 108.162629,48.0909091 105,48.0909091 C57.5537192,48.0909091 19.0909091,86.5537192 19.0909091,134 C19.0909091,142.352659 20.2829363,150.426905 22.5061539,158.061902 L8.3020072,174.990132 C2.95678335,162.396244 0,148.543419 0,134 C0,76.0101013 47.0101013,29 105,29 Z" id="Combined-Shape" fill="#091C48" fill-rule="nonzero"></path>
            <g id="Group-2" transform="translate(61.727273, 82.727273)" fill="#091C48">
                <g id="Group-3">
                    <path d="M3.45454545,22.4545455 L24.4545455,22.4545455 L24.4545455,43.4535455 L83.4545455,43.4545455 L83.4545455,64.4545455 L3.45454545,64.4545455 L3.45454545,22.4545455 Z" id="Combined-Shape" transform="translate(43.454545, 43.454545) rotate(-45.000000) translate(-43.454545, -43.454545) "></path>
                </g>
            </g>
            <mask id="mask-2" fill="white">
                <use xlink:href="#path-1"></use>
            </mask>
            <use id="Shape" fill="#091C48" fill-rule="nonzero" xlink:href="#path-1"></use>
        </g>
    </g>
</svg>