<?xml version="1.0" encoding="utf-8"?>
<!-- Generator: Adobe Illustrator 16.0.0, SVG Export Plug-In . SVG Version: 6.00 Build 0)  -->
<!DOCTYPE svg PUBLIC "-//W3C//DTD SVG 1.1//EN" "http://www.w3.org/Graphics/SVG/1.1/DTD/svg11.dtd">
<svg version="1.1" xmlns="http://www.w3.org/2000/svg" xmlns:xlink="http://www.w3.org/1999/xlink" x="0px" y="0px"
	 width="188.364px" height="65.474px" viewBox="0 0 188.364 65.474" enable-background="new 0 0 188.364 65.474"
	 xml:space="preserve">
<g id="FR" display="none">
	<g display="inline">
		<path fill="#223668" d="M11.605,34.651c1.252,1.215,3.054,1.82,5.403,1.82c1.683,0,3.132-0.42,4.346-1.262
			c1.213-0.842,1.957-1.733,2.232-2.672h7.342c-1.175,3.641-2.977,6.245-5.404,7.811c-2.428,1.566-5.365,2.35-8.81,2.35
			c-2.389,0-4.543-0.381-6.461-1.145c-1.918-0.764-3.544-1.852-4.875-3.26c-1.332-1.41-2.359-3.094-3.083-5.051
			c-0.725-1.958-1.087-4.112-1.087-6.46c0-2.271,0.372-4.385,1.116-6.343c0.743-1.958,1.801-3.651,3.172-5.081
			c1.37-1.429,3.004-2.555,4.904-3.377c1.899-0.823,4.003-1.233,6.314-1.233c2.584,0,4.835,0.499,6.754,1.498
			c1.918,0.999,3.495,2.34,4.728,4.023c1.234,1.684,2.124,3.602,2.672,5.756c0.548,2.153,0.744,4.405,0.587,6.754H9.55
			C9.667,31.48,10.352,33.438,11.605,34.651 M21.032,18.677c-0.999-1.096-2.517-1.645-4.552-1.645c-1.332,0-2.438,0.226-3.318,0.675
			c-0.881,0.45-1.586,1.009-2.114,1.674c-0.529,0.666-0.901,1.371-1.116,2.114c-0.215,0.744-0.343,1.41-0.382,1.997h13.567
			C22.725,21.378,22.03,19.773,21.032,18.677"/>
		<path fill="#223668" d="M46.491,17.032c-1.332,0-2.448,0.304-3.348,0.91c-0.901,0.608-1.635,1.391-2.202,2.349
			c-0.568,0.96-0.969,2.017-1.204,3.171c-0.235,1.156-0.353,2.301-0.353,3.437c0,1.097,0.117,2.213,0.353,3.347
			c0.235,1.137,0.617,2.165,1.145,3.083c0.529,0.921,1.243,1.675,2.144,2.261c0.9,0.588,1.997,0.883,3.289,0.883
			c1.998,0,3.533-0.559,4.611-1.676c1.076-1.115,1.752-2.612,2.026-4.492h8.046c-0.549,4.033-2.114,7.107-4.699,9.221
			c-2.584,2.115-5.893,3.172-9.925,3.172c-2.271,0-4.356-0.383-6.255-1.145c-1.899-0.764-3.514-1.83-4.845-3.201
			c-1.332-1.371-2.369-3.004-3.113-4.905c-0.744-1.898-1.116-3.983-1.116-6.254c0-2.35,0.343-4.533,1.028-6.549
			c0.685-2.017,1.693-3.759,3.024-5.228c1.332-1.468,2.956-2.613,4.875-3.436c1.917-0.822,4.111-1.233,6.578-1.233
			c1.8,0,3.533,0.235,5.197,0.705c1.664,0.47,3.151,1.185,4.464,2.144c1.312,0.96,2.378,2.154,3.201,3.583
			c0.822,1.43,1.292,3.123,1.41,5.081h-8.163C52.109,18.775,50.054,17.032,46.491,17.032"/>
		<path fill="#223668" d="M69.103,0v15.799h0.176c1.057-1.762,2.408-3.043,4.052-3.847c1.645-0.802,3.25-1.204,4.816-1.204
			c2.232,0,4.062,0.303,5.491,0.91c1.429,0.608,2.555,1.449,3.377,2.525c0.823,1.078,1.4,2.389,1.733,3.936
			c0.332,1.547,0.499,3.259,0.499,5.139v18.677h-8.34v-17.15c0-2.505-0.391-4.375-1.174-5.609c-0.784-1.233-2.173-1.85-4.17-1.85
			c-2.271,0-3.916,0.675-4.933,2.026c-1.02,1.351-1.527,3.573-1.527,6.666v15.917h-8.34V0H69.103z"/>
		<path fill="#223668" d="M99.525,34.651c1.252,1.215,3.053,1.82,5.403,1.82c1.683,0,3.132-0.42,4.346-1.262
			c1.213-0.842,1.957-1.733,2.231-2.672h7.342c-1.175,3.641-2.976,6.245-5.403,7.811s-5.365,2.35-8.81,2.35
			c-2.389,0-4.542-0.381-6.461-1.145c-1.92-0.764-3.544-1.852-4.874-3.26c-1.332-1.41-2.36-3.094-3.083-5.051
			c-0.726-1.958-1.087-4.112-1.087-6.46c0-2.271,0.372-4.385,1.117-6.343c0.744-1.958,1.8-3.651,3.171-5.081
			c1.37-1.429,3.004-2.555,4.905-3.377c1.898-0.823,4.003-1.233,6.313-1.233c2.585,0,4.835,0.499,6.754,1.498
			c1.918,0.999,3.493,2.34,4.728,4.023c1.233,1.684,2.125,3.602,2.673,5.756c0.548,2.153,0.744,4.405,0.587,6.754H97.47
			C97.587,31.48,98.271,33.438,99.525,34.651 M108.951,18.677c-0.998-1.096-2.516-1.645-4.552-1.645
			c-1.332,0-2.437,0.226-3.318,0.675c-0.881,0.45-1.586,1.009-2.113,1.674c-0.529,0.666-0.902,1.371-1.117,2.114
			s-0.343,1.41-0.381,1.997h13.567C110.645,21.378,109.95,19.773,108.951,18.677"/>
		<rect x="119.259" fill="#223668" width="8.34" height="41.935"/>
		<path fill="#223668" d="M128.596,20.174c0.743-1.977,1.801-3.66,3.173-5.051c1.369-1.39,3.014-2.466,4.934-3.23
			c1.917-0.764,4.071-1.146,6.46-1.146c2.387,0,4.552,0.382,6.489,1.146c1.939,0.764,3.592,1.84,4.963,3.23
			c1.371,1.391,2.428,3.074,3.172,5.051c0.743,1.978,1.115,4.18,1.115,6.608s-0.372,4.62-1.115,6.578
			c-0.744,1.959-1.801,3.631-3.172,5.022c-1.371,1.389-3.023,2.457-4.963,3.201c-1.938,0.742-4.103,1.115-6.489,1.115
			c-2.389,0-4.543-0.373-6.46-1.115c-1.92-0.744-3.564-1.812-4.934-3.201c-1.372-1.391-2.43-3.062-3.173-5.022
			c-0.743-1.958-1.115-4.15-1.115-6.578S127.853,22.152,128.596,20.174 M136.173,30.335c0.234,1.155,0.635,2.193,1.204,3.112
			c0.566,0.92,1.32,1.655,2.262,2.204c0.939,0.549,2.113,0.822,3.523,0.822c1.409,0,2.594-0.273,3.553-0.822
			s1.723-1.283,2.292-2.204c0.565-0.919,0.969-1.957,1.202-3.112c0.235-1.154,0.353-2.339,0.353-3.553
			c0-1.213-0.117-2.409-0.353-3.583c-0.233-1.175-0.637-2.212-1.202-3.113c-0.569-0.9-1.333-1.635-2.292-2.202
			s-2.144-0.852-3.553-0.852c-1.41,0-2.584,0.285-3.523,0.852c-0.941,0.567-1.695,1.302-2.262,2.202
			c-0.569,0.901-0.97,1.938-1.204,3.113c-0.235,1.174-0.353,2.369-0.353,3.583C135.82,27.996,135.938,29.181,136.173,30.335"/>
		<path fill="#223668" d="M166.653,11.57v4.229h0.177c1.057-1.762,2.427-3.043,4.111-3.847c1.684-0.802,3.406-1.204,5.169-1.204
			c2.231,0,4.062,0.304,5.491,0.91c1.429,0.607,2.555,1.449,3.377,2.525c0.823,1.078,1.399,2.389,1.733,3.935
			c0.33,1.547,0.498,3.26,0.498,5.139v18.677h-8.34v-17.15c0-2.505-0.392-4.375-1.174-5.608c-0.784-1.233-2.174-1.851-4.171-1.851
			c-2.271,0-3.915,0.675-4.933,2.027c-1.02,1.351-1.527,3.573-1.527,6.666v15.917h-8.34V11.57H166.653z"/>
		<path fill="#939599" d="M123.312,52.8h1.661l3.943,10.865h-1.611l-1.135-3.256h-4.263l-1.179,3.256h-1.509L123.312,52.8z
			 M125.752,59.212l-1.673-4.801l-1.738,4.801H125.752z"/>
		<path fill="#939599" d="M130.252,61.179c0.04,0.443,0.153,0.783,0.34,1.021c0.342,0.43,0.937,0.643,1.781,0.643
			c0.504,0,0.946-0.107,1.328-0.32c0.383-0.215,0.574-0.547,0.574-0.996c0-0.34-0.152-0.6-0.458-0.775
			c-0.196-0.109-0.581-0.234-1.158-0.379l-1.074-0.266c-0.687-0.168-1.192-0.355-1.519-0.562c-0.581-0.359-0.872-0.857-0.872-1.492
			c0-0.75,0.273-1.357,0.821-1.82c0.546-0.465,1.283-0.695,2.207-0.695c1.209,0,2.081,0.35,2.616,1.051
			c0.334,0.443,0.497,0.922,0.486,1.434h-1.257c-0.025-0.299-0.134-0.57-0.325-0.816c-0.313-0.348-0.856-0.521-1.629-0.521
			c-0.514,0-0.904,0.096-1.169,0.287c-0.266,0.191-0.397,0.445-0.397,0.76c0,0.344,0.174,0.619,0.522,0.824
			c0.201,0.123,0.497,0.232,0.89,0.324l0.896,0.215c0.975,0.232,1.628,0.457,1.96,0.674c0.517,0.34,0.775,0.875,0.775,1.605
			c0,0.705-0.271,1.312-0.812,1.826s-1.366,0.77-2.475,0.77c-1.193,0-2.039-0.268-2.534-0.803c-0.497-0.535-0.764-1.197-0.798-1.986
			H130.252z"/>
		<path fill="#939599" d="M137.522,61.179c0.041,0.443,0.153,0.783,0.34,1.021c0.342,0.43,0.937,0.643,1.781,0.643
			c0.504,0,0.946-0.107,1.329-0.32c0.382-0.215,0.573-0.547,0.573-0.996c0-0.34-0.152-0.6-0.458-0.775
			c-0.195-0.109-0.581-0.234-1.158-0.379l-1.074-0.266c-0.687-0.168-1.192-0.355-1.519-0.562c-0.582-0.359-0.872-0.857-0.872-1.492
			c0-0.75,0.273-1.357,0.821-1.82c0.547-0.465,1.282-0.695,2.207-0.695c1.209,0,2.08,0.35,2.616,1.051
			c0.335,0.443,0.497,0.922,0.486,1.434h-1.256c-0.026-0.299-0.135-0.57-0.326-0.816c-0.312-0.348-0.856-0.521-1.628-0.521
			c-0.515,0-0.904,0.096-1.17,0.287c-0.265,0.191-0.397,0.445-0.397,0.76c0,0.344,0.174,0.619,0.522,0.824
			c0.2,0.123,0.497,0.232,0.89,0.324l0.896,0.215c0.975,0.232,1.627,0.457,1.96,0.674c0.518,0.34,0.775,0.875,0.775,1.605
			c0,0.705-0.271,1.312-0.812,1.826c-0.541,0.514-1.366,0.77-2.475,0.77c-1.193,0-2.039-0.268-2.535-0.803
			c-0.497-0.535-0.763-1.197-0.797-1.986H137.522z"/>
		<path fill="#939599" d="M145.182,55.743v5.258c0,0.404,0.062,0.734,0.188,0.99c0.23,0.475,0.66,0.711,1.289,0.711
			c0.902,0,1.518-0.414,1.844-1.242c0.178-0.443,0.267-1.053,0.267-1.826v-3.891h1.332v7.922h-1.259l0.016-1.17
			c-0.169,0.301-0.381,0.555-0.632,0.762c-0.498,0.414-1.103,0.621-1.813,0.621c-1.108,0-1.863-0.377-2.265-1.131
			c-0.218-0.404-0.327-0.945-0.327-1.619v-5.385H145.182z"/>
		<path fill="#939599" d="M152.009,55.743h1.264v1.367c0.104-0.266,0.358-0.59,0.763-0.973c0.404-0.381,0.869-0.572,1.397-0.572
			c0.024,0,0.067,0.002,0.125,0.008c0.061,0.004,0.16,0.016,0.305,0.029v1.404c-0.079-0.014-0.152-0.023-0.219-0.029
			c-0.066-0.004-0.14-0.008-0.219-0.008c-0.67,0-1.186,0.217-1.545,0.648c-0.36,0.432-0.54,0.928-0.54,1.49v4.557h-1.331V55.743z"/>
		<path fill="#939599" d="M160.807,58.87c0.305-0.039,0.51-0.166,0.614-0.385c0.059-0.117,0.089-0.287,0.089-0.512
			c0-0.455-0.162-0.785-0.483-0.99c-0.323-0.207-0.785-0.309-1.385-0.309c-0.693,0-1.186,0.188-1.477,0.564
			c-0.162,0.209-0.268,0.518-0.316,0.93h-1.243c0.024-0.979,0.341-1.66,0.95-2.043c0.607-0.383,1.312-0.576,2.115-0.576
			c0.931,0,1.688,0.178,2.269,0.533c0.576,0.355,0.864,0.908,0.864,1.658v4.562c0,0.139,0.028,0.25,0.085,0.332
			c0.057,0.084,0.176,0.127,0.358,0.127c0.06,0,0.126-0.004,0.2-0.012c0.073-0.008,0.152-0.018,0.236-0.033V63.7
			c-0.207,0.061-0.365,0.098-0.474,0.111c-0.108,0.016-0.257,0.023-0.443,0.023c-0.459,0-0.792-0.164-0.998-0.488
			c-0.109-0.172-0.186-0.418-0.229-0.732c-0.271,0.355-0.661,0.662-1.169,0.924s-1.067,0.393-1.679,0.393
			c-0.734,0-1.335-0.223-1.801-0.668c-0.467-0.447-0.699-1.004-0.699-1.674c0-0.734,0.229-1.303,0.688-1.707
			c0.459-0.402,1.061-0.65,1.805-0.746L160.807,58.87z M158.003,62.468c0.281,0.221,0.614,0.33,0.999,0.33
			c0.468,0,0.922-0.107,1.361-0.324c0.739-0.359,1.108-0.947,1.108-1.764v-1.072c-0.162,0.104-0.371,0.191-0.627,0.26
			c-0.256,0.07-0.507,0.119-0.753,0.148l-0.804,0.104c-0.483,0.064-0.846,0.166-1.089,0.303c-0.412,0.232-0.617,0.6-0.617,1.107
			C157.582,61.942,157.722,62.245,158.003,62.468"/>
		<path fill="#939599" d="M164.758,55.743h1.265v1.125c0.374-0.465,0.771-0.797,1.19-1c0.42-0.201,0.885-0.303,1.398-0.303
			c1.124,0,1.884,0.393,2.277,1.176c0.218,0.43,0.326,1.043,0.326,1.842v5.082h-1.354v-4.992c0-0.484-0.07-0.873-0.214-1.17
			c-0.237-0.492-0.665-0.74-1.287-0.74c-0.315,0-0.574,0.033-0.776,0.098c-0.365,0.107-0.686,0.324-0.962,0.65
			c-0.223,0.262-0.365,0.531-0.433,0.811c-0.066,0.277-0.1,0.676-0.1,1.193v4.15h-1.331V55.743z"/>
		<path fill="#939599" d="M178.188,56.165c0.56,0.434,0.896,1.18,1.01,2.24h-1.294c-0.08-0.488-0.259-0.895-0.54-1.217
			s-0.732-0.484-1.354-0.484c-0.848,0-1.454,0.414-1.82,1.24c-0.236,0.537-0.354,1.199-0.354,1.988c0,0.793,0.167,1.459,0.503,2.002
			c0.335,0.541,0.863,0.812,1.583,0.812c0.552,0,0.989-0.168,1.312-0.504c0.323-0.338,0.546-0.797,0.67-1.383h1.294
			c-0.147,1.051-0.518,1.818-1.109,2.305c-0.592,0.484-1.349,0.729-2.271,0.729c-1.035,0-1.861-0.379-2.478-1.135
			c-0.615-0.758-0.925-1.703-0.925-2.838c0-1.389,0.338-2.473,1.015-3.246c0.674-0.773,1.535-1.162,2.581-1.162
			C176.901,55.513,177.628,55.729,178.188,56.165"/>
		<path fill="#939599" d="M185.271,55.962c0.523,0.262,0.923,0.604,1.198,1.023c0.263,0.4,0.44,0.865,0.528,1.398
			c0.078,0.365,0.118,0.945,0.118,1.744h-5.763c0.024,0.807,0.214,1.453,0.565,1.939c0.353,0.488,0.898,0.73,1.637,0.73
			c0.689,0,1.239-0.23,1.651-0.689c0.229-0.268,0.393-0.578,0.489-0.93h1.309c-0.034,0.291-0.149,0.615-0.344,0.973
			c-0.195,0.357-0.412,0.65-0.652,0.877c-0.401,0.395-0.897,0.66-1.49,0.799c-0.317,0.078-0.678,0.119-1.079,0.119
			c-0.979,0-1.811-0.359-2.492-1.078c-0.68-0.717-1.021-1.721-1.021-3.014c0-1.271,0.343-2.305,1.029-3.098
			c0.686-0.793,1.582-1.191,2.69-1.191C184.204,55.565,184.745,55.698,185.271,55.962 M185.746,59.071
			c-0.054-0.576-0.179-1.037-0.373-1.383c-0.362-0.641-0.967-0.963-1.812-0.963c-0.605,0-1.114,0.223-1.525,0.662
			c-0.411,0.441-0.628,1.004-0.652,1.684H185.746z"/>
	</g>
</g>
<g id="EN">
	<g>
		<path fill="#1E386A" d="M11.752,34.677c1.251,1.213,3.051,1.818,5.398,1.818c1.682,0,3.13-0.42,4.343-1.262
			c1.212-0.84,1.956-1.731,2.23-2.669h7.335c-1.174,3.638-2.974,6.239-5.399,7.804c-2.427,1.566-5.361,2.348-8.803,2.348
			c-2.388,0-4.539-0.381-6.456-1.143c-1.917-0.764-3.541-1.85-4.871-3.258c-1.331-1.408-2.358-3.092-3.081-5.047
			c-0.724-1.957-1.086-4.109-1.086-6.456c0-2.269,0.372-4.381,1.115-6.338c0.743-1.956,1.799-3.648,3.169-5.077
			c1.369-1.427,3.002-2.553,4.899-3.374c1.898-0.822,4-1.232,6.31-1.232c2.582,0,4.832,0.499,6.749,1.497
			c1.917,0.998,3.492,2.338,4.725,4.02c1.233,1.683,2.122,3.6,2.67,5.751c0.547,2.153,0.743,4.401,0.587,6.749H9.698
			C9.815,31.507,10.5,33.464,11.752,34.677 M21.171,18.713c-0.998-1.095-2.515-1.643-4.548-1.643c-1.331,0-2.435,0.226-3.316,0.675
			c-0.88,0.45-1.584,1.008-2.113,1.673c-0.528,0.666-0.9,1.37-1.115,2.113c-0.216,0.744-0.343,1.408-0.381,1.995h13.557
			C22.863,21.413,22.169,19.81,21.171,18.713"/>
		<path fill="#1E386A" d="M46.611,17.07c-1.331,0-2.446,0.304-3.345,0.91c-0.9,0.607-1.634,1.389-2.2,2.348
			c-0.568,0.959-0.969,2.015-1.204,3.168c-0.234,1.155-0.352,2.299-0.352,3.434c0,1.096,0.118,2.211,0.352,3.345
			c0.235,1.135,0.617,2.163,1.145,3.081c0.528,0.92,1.242,1.672,2.142,2.26c0.9,0.586,1.995,0.881,3.286,0.881
			c1.996,0,3.531-0.559,4.607-1.674c1.076-1.115,1.75-2.611,2.025-4.489h8.04c-0.548,4.03-2.113,7.1-4.695,9.213
			c-2.582,2.113-5.889,3.168-9.918,3.168c-2.27,0-4.353-0.381-6.25-1.145c-1.898-0.762-3.512-1.828-4.841-3.197
			c-1.331-1.369-2.368-3.002-3.11-4.9c-0.744-1.897-1.115-3.981-1.115-6.25c0-2.348,0.342-4.529,1.027-6.544
			c0.684-2.014,1.692-3.756,3.022-5.223c1.33-1.468,2.954-2.611,4.871-3.433c1.917-0.822,4.108-1.232,6.573-1.232
			c1.799,0,3.531,0.234,5.193,0.704c1.663,0.469,3.149,1.184,4.46,2.142c1.31,0.959,2.377,2.152,3.198,3.58
			c0.821,1.429,1.291,3.121,1.409,5.077h-8.158C52.226,18.812,50.171,17.07,46.611,17.07"/>
		<path fill="#1E386A" d="M69.206,0.051v15.787h0.176c1.056-1.76,2.406-3.042,4.049-3.844c1.643-0.802,3.247-1.203,4.812-1.203
			c2.23,0,4.058,0.303,5.487,0.909c1.427,0.607,2.553,1.448,3.375,2.523c0.822,1.077,1.398,2.388,1.731,3.933
			c0.332,1.546,0.499,3.257,0.499,5.135v18.661h-8.334V24.817c0-2.503-0.392-4.372-1.174-5.604
			c-0.783-1.232-2.171-1.849-4.166-1.849c-2.27,0-3.914,0.675-4.93,2.025c-1.019,1.35-1.526,3.571-1.526,6.661v15.903h-8.333V0.051
			H69.206z"/>
		<path fill="#1E386A" d="M99.604,34.677c1.252,1.213,3.051,1.818,5.398,1.818c1.683,0,3.131-0.42,4.344-1.262
			c1.212-0.84,1.955-1.731,2.229-2.669h7.336c-1.173,3.638-2.974,6.239-5.398,7.804c-2.428,1.566-5.361,2.348-8.805,2.348
			c-2.385,0-4.538-0.381-6.455-1.143c-1.917-0.764-3.54-1.85-4.871-3.258c-1.33-1.408-2.357-3.092-3.081-5.047
			c-0.725-1.957-1.086-4.109-1.086-6.456c0-2.269,0.372-4.381,1.115-6.338c0.743-1.956,1.799-3.648,3.169-5.077
			c1.37-1.427,3-2.553,4.9-3.374c1.897-0.822,3.999-1.232,6.308-1.232c2.584,0,4.832,0.499,6.75,1.497s3.491,2.338,4.724,4.02
			c1.233,1.683,2.122,3.6,2.672,5.751c0.547,2.153,0.742,4.401,0.586,6.749H97.55C97.668,31.507,98.352,33.464,99.604,34.677
			 M109.023,18.713c-0.997-1.095-2.515-1.643-4.549-1.643c-1.33,0-2.435,0.226-3.315,0.675c-0.881,0.45-1.585,1.008-2.112,1.673
			c-0.528,0.666-0.9,1.37-1.115,2.113c-0.215,0.744-0.343,1.408-0.382,1.995h13.558C110.716,21.413,110.022,19.81,109.023,18.713"/>
		<rect x="119.322" y="0.051" fill="#1E386A" width="8.334" height="41.903"/>
		<path fill="#1E386A" d="M128.652,20.21c0.744-1.975,1.8-3.658,3.171-5.046c1.368-1.389,3.011-2.465,4.93-3.228
			c1.916-0.763,4.067-1.145,6.455-1.145c2.385,0,4.548,0.381,6.484,1.145c1.938,0.763,3.589,1.839,4.959,3.228
			c1.369,1.388,2.426,3.071,3.169,5.046c0.743,1.977,1.115,4.177,1.115,6.603c0,2.426-0.372,4.617-1.115,6.572
			c-0.743,1.958-1.8,3.63-3.169,5.019c-1.37,1.389-3.021,2.455-4.959,3.197c-1.937,0.744-4.1,1.115-6.484,1.115
			c-2.388,0-4.539-0.371-6.455-1.115c-1.919-0.742-3.562-1.809-4.93-3.197c-1.371-1.389-2.427-3.061-3.171-5.019
			c-0.742-1.956-1.114-4.146-1.114-6.572C127.538,24.387,127.91,22.187,128.652,20.21 M136.224,30.363
			c0.235,1.155,0.635,2.191,1.203,3.11c0.567,0.92,1.32,1.654,2.261,2.201c0.938,0.547,2.111,0.822,3.521,0.822
			c1.408,0,2.591-0.275,3.55-0.822s1.723-1.281,2.29-2.201c0.566-0.919,0.968-1.956,1.202-3.11c0.234-1.154,0.352-2.338,0.352-3.551
			c0-1.212-0.117-2.406-0.352-3.58c-0.234-1.173-0.636-2.21-1.202-3.11c-0.567-0.899-1.331-1.633-2.29-2.201
			c-0.959-0.567-2.142-0.851-3.55-0.851c-1.409,0-2.582,0.284-3.521,0.851c-0.94,0.568-1.693,1.301-2.261,2.201
			c-0.568,0.9-0.968,1.937-1.203,3.11c-0.234,1.174-0.351,2.368-0.351,3.58C135.873,28.025,135.989,29.209,136.224,30.363"/>
		<path fill="#1E386A" d="M166.682,11.613v4.225h0.177c1.056-1.76,2.425-3.041,4.108-3.844c1.682-0.802,3.403-1.203,5.165-1.203
			c2.229,0,4.058,0.303,5.486,0.909c1.428,0.607,2.553,1.448,3.374,2.524c0.822,1.077,1.398,2.387,1.731,3.932
			c0.331,1.546,0.498,3.257,0.498,5.135v18.663h-8.332V24.817c0-2.504-0.393-4.372-1.174-5.605
			c-0.783-1.232-2.172-1.849-4.167-1.849c-2.27,0-3.913,0.675-4.93,2.025c-1.018,1.35-1.525,3.571-1.525,6.661v15.905h-8.335V11.613
			H166.682z"/>
		<rect x="119.46" y="52.628" fill="#939599" width="1.492" height="11.219"/>
		<path fill="#939599" d="M124.614,55.722v1.289h0.03c0.555-0.984,1.436-1.479,2.641-1.479c0.533,0,0.979,0.074,1.336,0.221
			c0.355,0.146,0.644,0.352,0.863,0.613s0.375,0.574,0.464,0.936c0.09,0.361,0.135,0.762,0.135,1.201v5.344h-1.337v-5.5
			c0-0.504-0.146-0.902-0.439-1.195c-0.295-0.291-0.697-0.439-1.209-0.439c-0.41,0-0.763,0.062-1.062,0.188
			c-0.298,0.127-0.548,0.305-0.746,0.535c-0.199,0.23-0.349,0.5-0.447,0.809c-0.101,0.311-0.15,0.648-0.15,1.014v4.59h-1.335v-8.125
			H124.614z"/>
		<path fill="#939599" d="M133.226,62.032c0.124,0.203,0.289,0.365,0.493,0.486s0.437,0.207,0.692,0.258
			c0.257,0.053,0.521,0.082,0.793,0.082c0.21,0,0.43-0.018,0.661-0.051c0.229-0.031,0.442-0.086,0.637-0.172
			c0.193-0.084,0.353-0.205,0.479-0.367c0.125-0.164,0.188-0.371,0.188-0.623c0-0.346-0.131-0.607-0.393-0.785
			c-0.261-0.18-0.589-0.322-0.981-0.432c-0.394-0.109-0.82-0.209-1.281-0.299c-0.46-0.09-0.888-0.215-1.279-0.377
			c-0.394-0.162-0.722-0.391-0.982-0.684c-0.264-0.293-0.393-0.701-0.393-1.227c0-0.408,0.091-0.76,0.274-1.051
			c0.183-0.295,0.418-0.533,0.707-0.717c0.286-0.182,0.612-0.318,0.974-0.408s0.721-0.133,1.076-0.133
			c0.462,0,0.886,0.039,1.272,0.117c0.389,0.08,0.731,0.215,1.031,0.408c0.298,0.193,0.536,0.455,0.713,0.785
			c0.18,0.33,0.283,0.742,0.315,1.234h-1.335c-0.021-0.262-0.09-0.479-0.205-0.652c-0.114-0.174-0.262-0.312-0.44-0.416
			c-0.178-0.105-0.374-0.182-0.589-0.229s-0.432-0.07-0.652-0.07c-0.199,0-0.4,0.016-0.604,0.047
			c-0.204,0.033-0.392,0.086-0.558,0.164c-0.167,0.08-0.304,0.184-0.407,0.316c-0.106,0.133-0.159,0.301-0.159,0.51
			c0,0.23,0.081,0.422,0.243,0.574c0.163,0.152,0.37,0.277,0.621,0.375c0.252,0.102,0.534,0.184,0.85,0.254
			c0.313,0.066,0.628,0.139,0.941,0.211c0.337,0.074,0.662,0.162,0.983,0.268c0.318,0.105,0.603,0.242,0.848,0.416
			c0.247,0.172,0.446,0.391,0.598,0.652s0.228,0.588,0.228,0.975c0,0.492-0.102,0.9-0.307,1.227
			c-0.204,0.322-0.471,0.586-0.801,0.783c-0.33,0.201-0.702,0.34-1.116,0.418s-0.824,0.117-1.233,0.117
			c-0.45,0-0.881-0.047-1.288-0.143c-0.407-0.092-0.771-0.248-1.086-0.463c-0.312-0.213-0.564-0.496-0.753-0.848
			c-0.189-0.352-0.293-0.777-0.314-1.281h1.337C133.03,61.577,133.099,61.827,133.226,62.032"/>
		<path fill="#939599" d="M145.639,63.847v-1.289h-0.032c-0.282,0.504-0.645,0.873-1.084,1.109
			c-0.438,0.234-0.958,0.352-1.555,0.352c-0.535,0-0.979-0.07-1.336-0.213c-0.357-0.139-0.644-0.342-0.865-0.604
			c-0.221-0.264-0.373-0.574-0.463-0.934c-0.089-0.361-0.134-0.764-0.134-1.203v-5.344h1.336v5.5c0,0.502,0.146,0.9,0.439,1.195
			c0.295,0.293,0.697,0.439,1.211,0.439c0.408,0,0.762-0.062,1.06-0.189c0.3-0.125,0.547-0.303,0.746-0.533
			c0.201-0.23,0.35-0.502,0.448-0.811c0.1-0.309,0.149-0.646,0.149-1.012v-4.59h1.337v8.125H145.639z"/>
		<path fill="#939599" d="M150.227,55.722v1.713h0.032c0.324-0.66,0.723-1.145,1.193-1.461c0.473-0.314,1.069-0.461,1.792-0.441
			v1.416c-0.533,0-0.988,0.072-1.368,0.219c-0.377,0.148-0.68,0.363-0.91,0.645c-0.23,0.283-0.399,0.625-0.504,1.031
			c-0.104,0.4-0.157,0.867-0.157,1.389v3.615h-1.335v-8.125H150.227z"/>
		<path fill="#939599" d="M160.598,64.019c-0.346,0-0.62-0.096-0.824-0.291c-0.204-0.193-0.307-0.51-0.307-0.951
			c-0.367,0.441-0.795,0.758-1.28,0.951c-0.488,0.195-1.016,0.291-1.58,0.291c-0.366,0-0.714-0.039-1.037-0.117
			c-0.324-0.08-0.61-0.209-0.857-0.393c-0.246-0.184-0.438-0.42-0.58-0.707c-0.141-0.289-0.211-0.637-0.211-1.045
			c0-0.461,0.077-0.838,0.233-1.133c0.158-0.293,0.364-0.531,0.622-0.713c0.257-0.184,0.549-0.324,0.88-0.418
			c0.329-0.094,0.668-0.172,1.013-0.236c0.366-0.072,0.717-0.127,1.046-0.164c0.329-0.035,0.62-0.088,0.872-0.158
			c0.25-0.066,0.45-0.166,0.596-0.297c0.148-0.133,0.221-0.322,0.221-0.574c0-0.293-0.054-0.529-0.164-0.707
			c-0.111-0.178-0.251-0.314-0.424-0.408c-0.173-0.096-0.367-0.156-0.581-0.189c-0.216-0.031-0.429-0.047-0.638-0.047
			c-0.566,0-1.037,0.107-1.414,0.322c-0.378,0.215-0.583,0.619-0.613,1.217h-1.336c0.021-0.502,0.126-0.928,0.315-1.271
			c0.188-0.346,0.439-0.627,0.753-0.842c0.315-0.215,0.677-0.367,1.086-0.463c0.407-0.094,0.837-0.143,1.288-0.143
			c0.366,0,0.731,0.027,1.092,0.08s0.688,0.16,0.981,0.322s0.53,0.389,0.708,0.682c0.179,0.295,0.266,0.678,0.266,1.148v4.18
			c0,0.316,0.019,0.547,0.056,0.691c0.036,0.146,0.161,0.221,0.37,0.221c0.114,0,0.251-0.025,0.408-0.08v1.037
			C161.326,63.95,161.007,64.019,160.598,64.019 M158.728,59.927c-0.272,0.057-0.557,0.104-0.855,0.141
			c-0.298,0.037-0.601,0.078-0.905,0.125c-0.303,0.047-0.575,0.123-0.815,0.229s-0.438,0.254-0.589,0.447
			c-0.152,0.193-0.228,0.459-0.228,0.795c0,0.219,0.044,0.404,0.132,0.557c0.09,0.152,0.205,0.275,0.347,0.369
			s0.308,0.162,0.503,0.205c0.193,0.041,0.389,0.062,0.59,0.062c0.439,0,0.816-0.061,1.129-0.18
			c0.316-0.121,0.571-0.273,0.771-0.457c0.198-0.184,0.345-0.383,0.439-0.598c0.096-0.215,0.142-0.416,0.142-0.604v-1.367
			C159.22,59.776,159,59.868,158.728,59.927"/>
		<path fill="#939599" d="M164.165,55.722v1.289h0.031c0.556-0.984,1.437-1.479,2.641-1.479c0.532,0,0.979,0.074,1.335,0.221
			c0.356,0.146,0.645,0.352,0.864,0.613c0.221,0.262,0.376,0.574,0.464,0.936c0.089,0.361,0.133,0.762,0.133,1.201v5.344h-1.334
			v-5.5c0-0.504-0.148-0.902-0.442-1.195c-0.292-0.291-0.694-0.439-1.209-0.439c-0.407,0-0.762,0.062-1.061,0.188
			c-0.299,0.127-0.547,0.305-0.745,0.535c-0.2,0.23-0.35,0.5-0.448,0.809c-0.101,0.311-0.149,0.648-0.149,1.014v4.59h-1.337v-8.125
			H164.165z"/>
		<path fill="#939599" d="M176.611,57.136c-0.335-0.283-0.786-0.424-1.352-0.424c-0.482,0-0.887,0.09-1.21,0.268
			c-0.326,0.178-0.584,0.414-0.778,0.705c-0.193,0.295-0.334,0.633-0.415,1.014c-0.085,0.385-0.127,0.779-0.127,1.189
			c0,0.377,0.044,0.742,0.134,1.098c0.089,0.357,0.229,0.674,0.415,0.951c0.189,0.277,0.435,0.502,0.739,0.668
			c0.304,0.168,0.667,0.254,1.084,0.254c0.66,0,1.177-0.176,1.548-0.521c0.372-0.344,0.601-0.832,0.684-1.459h1.366
			c-0.145,1.004-0.52,1.779-1.121,2.324c-0.604,0.545-1.423,0.816-2.46,0.816c-0.62,0-1.167-0.1-1.642-0.299
			c-0.477-0.199-0.875-0.482-1.194-0.848c-0.32-0.365-0.562-0.805-0.724-1.311c-0.163-0.51-0.243-1.066-0.243-1.674
			c0-0.609,0.079-1.178,0.236-1.707c0.156-0.529,0.394-0.988,0.714-1.381c0.319-0.395,0.722-0.703,1.202-0.928
			c0.481-0.227,1.044-0.338,1.682-0.338c0.461,0,0.895,0.055,1.296,0.164c0.404,0.109,0.76,0.281,1.068,0.512
			c0.312,0.23,0.563,0.52,0.763,0.871c0.199,0.35,0.324,0.768,0.377,1.25h-1.382C177.166,57.817,176.945,57.419,176.611,57.136"/>
		<path fill="#939599" d="M186.054,63.327c-0.607,0.461-1.372,0.691-2.293,0.691c-0.65,0-1.213-0.105-1.689-0.314
			c-0.477-0.207-0.879-0.502-1.202-0.879c-0.325-0.379-0.567-0.828-0.73-1.352c-0.162-0.523-0.255-1.094-0.275-1.715
			c0-0.617,0.094-1.182,0.284-1.695c0.188-0.514,0.452-0.959,0.793-1.336c0.339-0.377,0.744-0.672,1.209-0.881
			c0.466-0.209,0.978-0.312,1.532-0.312c0.724,0,1.322,0.148,1.799,0.447c0.478,0.299,0.86,0.678,1.148,1.141
			c0.288,0.459,0.486,0.961,0.596,1.506c0.11,0.547,0.155,1.064,0.135,1.557h-6.081c-0.012,0.357,0.031,0.695,0.125,1.014
			c0.094,0.32,0.247,0.604,0.456,0.848c0.209,0.246,0.477,0.445,0.802,0.59c0.323,0.146,0.708,0.221,1.146,0.221
			c0.566,0,1.028-0.131,1.391-0.393s0.6-0.66,0.715-1.195h1.32C187.055,62.181,186.662,62.866,186.054,63.327 M185.732,58.11
			c-0.12-0.283-0.283-0.525-0.488-0.73c-0.203-0.205-0.444-0.365-0.722-0.486c-0.278-0.121-0.584-0.182-0.92-0.182
			c-0.345,0-0.657,0.061-0.935,0.182s-0.516,0.285-0.714,0.494c-0.199,0.211-0.356,0.453-0.472,0.73
			c-0.114,0.277-0.184,0.574-0.204,0.889h4.667C185.924,58.692,185.854,58.392,185.732,58.11"/>
	</g>
</g>
</svg>
