<svg width="292" height="385" viewBox="0 0 292 385" fill="none" xmlns="http://www.w3.org/2000/svg">
<path fill-rule="evenodd" clip-rule="evenodd" d="M0 93V275.5L292 385V93H0Z" fill="#E04F61"/>
<mask id="mask0" mask-type="alpha" maskUnits="userSpaceOnUse" x="62" y="0" width="168" height="252">
<path d="M146 231C118.595 231 95.285 213.465 86.675 189H64.73C74.075 225.225 106.835 252 146 252C185.165 252 217.925 225.225 227.27 189H205.325C196.715 213.465 173.405 231 146 231ZM146 0L104 42H135.5V115.5H156.5V42H188L146 0ZM209 105C209 139.755 180.755 168 146 168C111.245 168 83 139.755 83 105C83 87.57 90.035 71.82 101.48 60.48L86.675 45.57C71.45 60.795 62 81.795 62 105C62 151.41 99.59 189 146 189C192.41 189 230 151.41 230 105C230 81.795 220.55 60.795 205.43 45.57L190.625 60.48C201.965 71.82 209 87.57 209 105Z" fill="white"/>
</mask>
<g mask="url(#mask0)">
<path d="M146 231C118.595 231 95.285 213.465 86.675 189H64.73C74.075 225.225 106.835 252 146 252C185.165 252 217.925 225.225 227.27 189H205.325C196.715 213.465 173.405 231 146 231ZM146 0L104 42H135.5V115.5H156.5V42H188L146 0ZM209 105C209 139.755 180.755 168 146 168C111.245 168 83 139.755 83 105C83 87.57 90.035 71.82 101.48 60.48L86.675 45.57C71.45 60.795 62 81.795 62 105C62 151.41 99.59 189 146 189C192.41 189 230 151.41 230 105C230 81.795 220.55 60.795 205.43 45.57L190.625 60.48C201.965 71.82 209 87.57 209 105Z" fill="#091C48"/>
</g>
</svg>
