<svg width="292" height="385" viewBox="0 0 292 385" fill="none" xmlns="http://www.w3.org/2000/svg">
<path fill-rule="evenodd" clip-rule="evenodd" d="M0 93V275.5L292 385V93H0Z" fill="#FFC000"/>
<mask id="mask0" mask-type="alpha" maskUnits="userSpaceOnUse" x="42" y="21" width="210" height="210">
<path d="M157.5 73.5H136.5V115.5H94.5V136.5H136.5V178.5H157.5V136.5H199.5V115.5H157.5V73.5ZM147 21C89.04 21 42 68.04 42 126C42 183.96 89.04 231 147 231C204.96 231 252 183.96 252 126C252 68.04 204.96 21 147 21ZM147 210C100.695 210 63 172.305 63 126C63 79.695 100.695 42 147 42C193.305 42 231 79.695 231 126C231 172.305 193.305 210 147 210Z" fill="white"/>
</mask>
<g mask="url(#mask0)">
<path d="M157.5 73.5H136.5V115.5H94.5V136.5H136.5V178.5H157.5V136.5H199.5V115.5H157.5V73.5ZM147 21C89.04 21 42 68.04 42 126C42 183.96 89.04 231 147 231C204.96 231 252 183.96 252 126C252 68.04 204.96 21 147 21ZM147 210C100.695 210 63 172.305 63 126C63 79.695 100.695 42 147 42C193.305 42 231 79.695 231 126C231 172.305 193.305 210 147 210Z" fill="#091C48"/>
</g>
</svg>
