<svg width="292" height="385" viewBox="0 0 292 385" fill="none" xmlns="http://www.w3.org/2000/svg">
<path fill-rule="evenodd" clip-rule="evenodd" d="M0 93V275.5L292 385V93H0Z" fill="#4FE07C"/>
<mask id="mask0" mask-type="alpha" maskUnits="userSpaceOnUse" x="24" y="58" width="245" height="142">
<path d="M209 73.4999L194.195 58.6949L127.625 125.265L142.43 140.07L209 73.4999ZM253.52 58.6949L142.43 169.785L98.5399 126L83.7349 140.805L142.43 199.5L268.43 73.4999L253.52 58.6949ZM24.3049 140.805L82.9999 199.5L97.8049 184.695L39.2149 126L24.3049 140.805Z" fill="white"/>
</mask>
<g mask="url(#mask0)">
<path d="M209 73.4999L194.195 58.6949L127.625 125.265L142.43 140.07L209 73.4999ZM253.52 58.6949L142.43 169.785L98.5399 126L83.7349 140.805L142.43 199.5L268.43 73.4999L253.52 58.6949ZM24.3049 140.805L82.9999 199.5L97.8049 184.695L39.2149 126L24.3049 140.805Z" fill="#091C48"/>
</g>
</svg>
