<?xml version="1.0" encoding="utf-8"?>
<!-- Generator: Adobe Illustrator 18.1.1, SVG Export Plug-In . SVG Version: 6.00 Build 0)  -->
<!DOCTYPE svg PUBLIC "-//W3C//DTD SVG 1.1//EN" "http://www.w3.org/Graphics/SVG/1.1/DTD/svg11.dtd">
<svg version="1.1" id="Layer_1" xmlns="http://www.w3.org/2000/svg" xmlns:xlink="http://www.w3.org/1999/xlink" x="0px" y="0px"
	 viewBox="0 0 184 45" enable-background="new 0 0 184 45" xml:space="preserve">
<g>
	<g>
		<path fill="#003594" d="M105.7,35.9c-0.5-0.2-1.1-0.4-1.7-0.4c-0.6,0-1.4,0.2-1.4,0.9c0,1.3,2.8,1.2,2.8,3.5c0,2-1.5,2.7-3.3,2.7
			c-0.8,0-1.6-0.2-2.3-0.5l0.4-1.4c0.6,0.3,1.3,0.6,2,0.6c0.8,0,1.5-0.4,1.5-1.3c0-1.5-2.8-1.2-2.8-3.4c0-1.7,1.5-2.4,3-2.4
			c0.7,0,1.4,0.1,2.1,0.4L105.7,35.9z"/>
		<path fill="#003594" d="M107.6,36.5h1.5l-1.3,6h-1.5L107.6,36.5z M108.2,33.9h1.5l-0.3,1.5h-1.5L108.2,33.9z"/>
		<path fill="#003594" d="M110.6,37.1c0-0.2,0.1-0.5,0.1-0.7h1.4l-0.1,0.8h0c0.4-0.6,1.1-0.9,1.8-0.9c0.7,0,1.4,0.4,1.5,1.1h0
			c0.4-0.8,1.3-1.1,2.1-1.1c0.9,0,1.7,0.7,1.7,1.6c0,0.5-0.1,1.1-0.3,1.6l-0.6,2.8h-1.5l0.6-2.9c0.1-0.4,0.2-0.9,0.2-1.3
			c0-0.4-0.3-0.7-0.7-0.7c-1.1,0-1.3,1.2-1.5,2.1l-0.6,2.8h-1.5l0.6-2.9c0.1-0.4,0.2-0.9,0.2-1.3c0-0.4-0.3-0.7-0.7-0.7
			c-1.1,0-1.3,1.3-1.5,2.1l-0.6,2.8h-1.5L110.6,37.1z"/>
		<path fill="#003594" d="M120.9,37.3c0.1-0.3,0.1-0.5,0.1-0.8h1.5l-0.2,0.8h0c0.5-0.6,1-0.9,1.8-0.9c1.5,0,2.2,1,2.2,2.4
			c0,1.9-1,3.8-3.1,3.8c-0.7,0-1.4-0.2-1.6-1.1h0l-0.7,3.4h-1.5L120.9,37.3z M123.6,37.5c-1.1,0-1.6,1.4-1.6,2.4
			c0,0.8,0.3,1.4,1,1.4c1.3,0,1.7-1.6,1.7-2.6C124.7,38.1,124.3,37.5,123.6,37.5z"/>
		<path fill="#003594" d="M128.7,33.8h1.5l-1.8,8.7h-1.5L128.7,33.8z"/>
		<path fill="#003594" d="M131.4,36.5h1.5l-1.3,6h-1.5L131.4,36.5z M131.9,33.9h1.5l-0.3,1.5h-1.5L131.9,33.9z"/>
		<path fill="#003594" d="M134.9,37.6h-1.2l0.2-1.1h1.2c0.3-1.5,0.8-2.9,2.6-2.9c0.4,0,0.7,0.1,1,0.2l-0.4,1.2
			c-0.1-0.1-0.3-0.1-0.5-0.1c-0.9,0-1.1,1-1.2,1.7h1.4l-0.2,1.1h-1.4l-1,4.8h-1.5L134.9,37.6z"/>
		<path fill="#003594" d="M139.9,36.5l0.6,4.4h0l2.4-4.4h1.7l-4,6.9c-0.5,0.8-1.1,1.7-2.4,1.7c-0.4,0-0.8-0.1-1.2-0.2l0.3-1.2
			c0.2,0.1,0.4,0.1,0.7,0.1c0.5,0,0.8-0.2,1.4-1.1l-1.1-6.2H139.9z"/>
		<path fill="#003594" d="M148.5,34.4h6.2l-0.3,1.3h-2.3l-1.5,6.8H149l1.5-6.8h-2.3L148.5,34.4z"/>
		<path fill="#003594" d="M154.1,37.3c0-0.3,0.1-0.5,0.1-0.8h1.5l-0.2,1.1h0c0.3-0.6,1-1.3,1.8-1.3c0.2,0,0.4,0,0.6,0.1l-0.3,1.5
			c-0.2-0.1-0.4-0.1-0.6-0.1c-1.1,0-1.6,1-1.8,1.9l-0.6,2.7H153L154.1,37.3z"/>
		<path fill="#003594" d="M161.3,41.5L161.3,41.5c-0.6,0.7-1.1,1.1-1.9,1.1c-1.1,0-1.8-0.6-1.8-1.7c0-2,2.2-2.1,3.7-2.1h0.5
			c0-0.2,0-0.3,0-0.5c0-0.6-0.6-0.8-1.2-0.8c-0.7,0-1.3,0.2-2,0.5l0.2-1.2c0.7-0.2,1.3-0.4,2-0.4c1.2,0,2.3,0.4,2.3,1.8
			c0,0.8-0.6,3.1-0.7,4.3h-1.3L161.3,41.5z M159.8,41.4c1.2,0,1.5-0.8,1.8-1.8H161c-0.8,0-2,0.1-2,1.1
			C159,41.2,159.4,41.4,159.8,41.4z"/>
		<path fill="#003594" d="M171.3,33.8l-1.6,7.4c-0.1,0.5-0.2,1-0.2,1.3h-1.4l0.1-0.9h0c-0.5,0.6-1,1-1.9,1c-1.4,0-2-1.2-2-2.5
			c0-1.8,1-3.8,3-3.8c0.8,0,1.4,0.3,1.8,0.8l0.8-3.4H171.3z M165.8,40c0,0.6,0.2,1.4,0.9,1.4c1.1,0,1.8-1.3,1.8-2.4
			c0-0.7-0.3-1.4-1.1-1.4C166.3,37.5,165.8,39.1,165.8,40z"/>
		<path fill="#003594" d="M172.6,39.9c0,1.1,0.6,1.5,1.7,1.5c0.6,0,1.2-0.2,1.8-0.4l-0.2,1.2c-0.6,0.2-1.3,0.3-1.9,0.3
			c-1.7,0-2.9-0.8-2.9-2.6c0-1.9,1.4-3.6,3.4-3.6c1.5,0,2.4,0.8,2.4,2.3c0,0.5-0.1,0.9-0.2,1.3H172.6z M175.5,38.9
			c0-0.1,0-0.3,0-0.4c0-0.6-0.3-1-1-1c-1,0-1.4,0.6-1.7,1.4H175.5z"/>
	</g>
	<g>
		<g>
			<polygon fill="#003594" points="161.8,9.3 169.7,9.3 173.3,20.2 173.4,20.2 175.4,9.3 180.7,9.3 176.9,29.4 169.9,29.4 165.8,17 
				165.7,17 163.4,29.4 158.1,29.4 			"/>
		</g>
		<g>
			<path fill="#003594" d="M100.4,24.4c0,0,2.2,1.3,5.3,1.3c1.5,0,3.4-0.4,3.7-2c0.3-1.6-1.8-2-4.1-2.9c-2.2-0.8-4.4-2.1-3.7-5.8
				c0.8-4.2,5-6.2,9.8-6.2c4.3,0,6.3,0.8,6.3,0.8l-1.1,4.2c0,0-1.7-1-4.5-1c-1.4,0-3.4,0.2-3.7,1.7c-0.2,1.3,1.7,1.6,3.6,2.4
				c3,1.1,5,2.2,4.3,6c-0.9,4.7-6,6.7-10.6,6.7c-1.9,0-4.8-0.3-6.5-0.9L100.4,24.4z"/>
		</g>
		<g>
			<polygon fill="#003594" points="123.8,13.2 118.9,13.2 119.6,9.3 136,9.3 135.3,13.2 130.3,13.2 127.3,29.4 120.8,29.4 			"/>
		</g>
		<g>
			<path fill="#003594" d="M144.8,25.7c3.3,0,4.6-3.1,5.2-6.4c0.7-3.5,0.5-6.4-2.7-6.4c-3.1,0-4.6,3-5.2,6.5
				C141.4,22.7,141.6,25.7,144.8,25.7 M148,8.9c7,0,9.9,3.9,8.7,10.4c-1.2,6.4-6,10.4-12.6,10.4c-6.6,0-9.9-4-8.7-10.4
				C136.6,12.9,141.3,8.9,148,8.9"/>
		</g>
		<g>
			<polygon fill="#003594" points="7.1,9.3 13.6,9.3 10.6,25.4 18,25.4 17.2,29.4 3.3,29.4 			"/>
		</g>
		<g>
			<polygon fill="#003594" points="23.2,9.3 29.7,9.3 26,29.4 19.5,29.4 			"/>
		</g>
		<g>
			<polygon fill="#003594" points="54.9,9.3 61.5,9.3 57.7,29.4 51.2,29.4 			"/>
		</g>
		<g>
			<polygon fill="#003594" points="31.7,9.3 38.4,9.3 39.8,24.1 46.9,9.3 53,9.3 42.4,29.4 34.6,29.4 			"/>
		</g>
		<g>
			<path fill="#003594" d="M92.9,19.8l-1.1,5.6c0,0-1.7,0.3-2.4,0.3c-3.9,0-5.3-2.4-4.5-6.3c0.9-4.7,4.1-6.5,8.4-6.5
				c1.3,0,3.8,0.3,5.3,1.3l1.3-4.4c-1.8-0.8-5.7-0.9-7.1-0.9c-4.6,0-8.6,1.1-11.3,3.8L79,25.9c1.8,2.8,5.3,3.9,8.7,3.9
				c1.8,0,5.5-0.1,9.1-0.9l1.7-9H92.9z"/>
		</g>
		<g>
			<polygon fill="#003594" points="70.8,9.2 73.8,18.6 77.6,0 61.9,9.2 			"/>
		</g>
		<g>
			<polygon fill="#003594" points="69.4,29.4 66.3,20 62.5,38.6 77.9,29.4 			"/>
		</g>
	</g>
</g>
</svg>
